<svg width="128" height="128" viewBox="0 0 128 128" fill="none" xmlns="http://www.w3.org/2000/svg">
    <path
        d="M64.022 108C79.5958 108.012 92.2111 95.3846 92.1989 79.7956C92.1774 52.1869 74.4326 28.7086 49.7441 20.1507L49.7314 20.1463C49.2431 19.9784 48.7013 19.9481 48.1655 20.0915C46.7311 20.4751 45.8809 21.9505 46.2664 23.3869C46.3809 23.8132 46.5895 24.2043 46.8663 24.5117L46.8886 24.5361C50.7849 28.8086 53.1636 34.4913 53.1685 40.7273C53.174 47.8263 50.1969 54.2143 45.3105 58.6077C45.2607 58.6524 45.2107 58.697 45.1606 58.7413C39.4094 63.9046 35.7946 71.4035 35.8011 79.7517C35.8133 95.3407 48.4482 107.988 64.022 108Z"
        fill="#D92323" />
</svg>