<svg width="371" height="156" viewBox="0 0 371 156" fill="none" xmlns="http://www.w3.org/2000/svg">
    <path
        d="M56.2822 74.5758C57.6042 72.6168 59.4158 71.0252 61.7171 69.8008C64.0673 68.5765 66.7358 67.9643 69.7225 67.9643C73.1989 67.9643 76.3325 68.8213 79.1234 70.5354C81.9633 72.2495 84.1911 74.6982 85.8068 77.8815C87.4716 81.0159 88.304 84.6644 88.304 88.8272C88.304 92.99 87.4716 96.6876 85.8068 99.9198C84.1911 103.103 81.9633 105.576 79.1234 107.339C76.3325 109.102 73.1989 109.984 69.7225 109.984C66.6868 109.984 64.0183 109.396 61.7171 108.221C59.4648 106.997 57.6532 105.429 56.2822 103.519V109.323H46V54.9617H56.2822V74.5758ZM77.8014 88.8272C77.8014 86.3785 77.2873 84.2726 76.2591 82.5096C75.2798 80.6975 73.9578 79.3263 72.2931 78.3958C70.6773 77.4653 68.9146 77 67.0051 77C65.1445 77 63.3818 77.4897 61.7171 78.4692C60.1013 79.3997 58.7793 80.771 57.7511 82.583C56.7718 84.3951 56.2822 86.5255 56.2822 88.9742C56.2822 91.4229 56.7718 93.5532 57.7511 95.3653C58.7793 97.1773 60.1013 98.5731 61.7171 99.5525C63.3818 100.483 65.1445 100.948 67.0051 100.948C68.9146 100.948 70.6773 100.459 72.2931 99.4791C73.9578 98.4996 75.2798 97.1038 76.2591 95.2918C77.2873 93.4798 77.8014 91.3249 77.8014 88.8272Z"
        fill="#f6f6f8" />
    <path
        d="M93.1318 88.8272C93.1318 84.7134 93.9397 81.0648 95.5554 77.8815C97.2202 74.6982 99.448 72.2495 102.239 70.5354C105.079 68.8213 108.237 67.9643 111.713 67.9643C114.749 67.9643 117.393 68.5765 119.645 69.8008C121.946 71.0252 123.783 72.5679 125.154 74.4289V68.6254H135.509V109.323H125.154V103.373C123.832 105.282 121.995 106.874 119.645 108.147C117.344 109.372 114.675 109.984 111.64 109.984C108.212 109.984 105.079 109.102 102.239 107.339C99.448 105.576 97.2202 103.103 95.5554 99.9198C93.9397 96.6876 93.1318 92.99 93.1318 88.8272ZM125.154 88.9742C125.154 86.4765 124.664 84.3461 123.685 82.583C122.705 80.771 121.383 79.3997 119.719 78.4692C118.054 77.4897 116.267 77 114.357 77C112.448 77 110.685 77.4653 109.069 78.3958C107.453 79.3263 106.131 80.6975 105.103 82.5096C104.124 84.2726 103.634 86.3785 103.634 88.8272C103.634 91.2759 104.124 93.4308 105.103 95.2918C106.131 97.1038 107.453 98.4996 109.069 99.4791C110.734 100.459 112.497 100.948 114.357 100.948C116.267 100.948 118.054 100.483 119.719 99.5525C121.383 98.5731 122.705 97.2018 123.685 95.4387C124.664 93.6267 125.154 91.4718 125.154 88.9742Z"
        fill="#f6f6f8" />
    <path d="M155.834 54.9617V109.323H145.552V54.9617H155.834Z" fill="#f6f6f8" />
    <path
        d="M203.816 88.0926C203.816 89.5618 203.719 90.8841 203.523 92.0595H173.778C174.022 94.998 175.051 97.2997 176.862 98.9649C178.674 100.63 180.902 101.463 183.546 101.463C187.365 101.463 190.082 99.8219 191.698 96.5406H202.788C201.613 100.459 199.361 103.691 196.031 106.237C192.702 108.735 188.613 109.984 183.766 109.984C179.849 109.984 176.324 109.127 173.19 107.413C170.105 105.65 167.682 103.177 165.919 99.9933C164.205 96.81 163.349 93.1369 163.349 88.9742C163.349 84.7624 164.205 81.0648 165.919 77.8815C167.633 74.6982 170.032 72.2495 173.117 70.5354C176.201 68.8213 179.751 67.9643 183.766 67.9643C187.634 67.9643 191.086 68.7969 194.122 70.462C197.206 72.1271 199.581 74.5023 201.246 77.5877C202.96 80.6241 203.816 84.1257 203.816 88.0926ZM193.167 85.1542C193.118 82.5096 192.163 80.4037 190.303 78.8365C188.442 77.2204 186.165 76.4123 183.472 76.4123C180.926 76.4123 178.772 77.1959 177.009 78.7631C175.296 80.2813 174.243 82.4116 173.851 85.1542H193.167Z"
        fill="#f6f6f8" />
    <path
        d="M229.976 77.0735H222.852V109.323H212.423V77.0735H207.796V68.6254H212.423V66.5685C212.423 61.5732 213.843 57.9001 216.683 55.5494C219.523 53.1986 223.807 52.0967 229.536 52.2436V60.912C227.039 60.8631 225.3 61.2793 224.321 62.1609C223.342 63.0424 222.852 64.6341 222.852 66.9358V68.6254H229.976V77.0735Z"
        fill="#D92323" />
    <path d="M246.922 68.6254V109.323H236.64V68.6254H246.922Z" fill="#D92323" />
    <path
        d="M267.363 74.9431C268.685 72.7882 270.399 71.0986 272.504 69.8743C274.658 68.6499 277.107 68.0378 279.849 68.0378V78.8365H277.131C273.9 78.8365 271.451 79.5956 269.787 81.1138C268.171 82.632 267.363 85.2766 267.363 89.0476V109.323H257.081V68.6254H267.363V74.9431Z"
        fill="#D92323" />
    <path
        d="M324.598 88.0926C324.598 89.5618 324.5 90.8841 324.304 92.0595H294.559C294.804 94.998 295.832 97.2997 297.644 98.9649C299.456 100.63 301.683 101.463 304.327 101.463C308.146 101.463 310.864 99.8219 312.48 96.5406H323.57C322.395 100.459 320.142 103.691 316.813 106.237C313.483 108.735 309.395 109.984 304.548 109.984C300.631 109.984 297.105 109.127 293.972 107.413C290.887 105.65 288.463 103.177 286.701 99.9933C284.987 96.81 284.13 93.1369 284.13 88.9742C284.13 84.7624 284.987 81.0648 286.701 77.8815C288.414 74.6982 290.814 72.2495 293.898 70.5354C296.983 68.8213 300.533 67.9643 304.548 67.9643C308.416 67.9643 311.868 68.7969 314.903 70.462C317.988 72.1271 320.363 74.5023 322.027 77.5877C323.741 80.6241 324.598 84.1257 324.598 88.0926ZM313.949 85.1542C313.9 82.5096 312.945 80.4037 311.084 78.8365C309.224 77.2204 306.947 76.4123 304.254 76.4123C301.708 76.4123 299.553 77.1959 297.791 78.7631C296.077 80.2813 295.024 82.4116 294.633 85.1542H313.949Z"
        fill="#D92323" />
    <path
        d="M241.39 63.4236C244.23 63.4258 246.53 61.0668 246.528 58.1546C246.524 52.9969 243.288 48.6109 238.786 47.0122L238.784 47.0113C238.695 46.98 238.596 46.9743 238.499 47.0011C238.237 47.0728 238.082 47.3484 238.152 47.6167C238.173 47.6964 238.211 47.7694 238.262 47.8268L238.266 47.8314C238.976 48.6296 239.41 49.6912 239.411 50.8561C239.412 52.1823 238.869 53.3757 237.978 54.1964C237.969 54.2048 237.96 54.2131 237.951 54.2214C236.902 55.186 236.243 56.5869 236.244 58.1464C236.246 61.0586 238.55 63.4213 241.39 63.4236Z"
        fill="#D92323" />
</svg>