<svg width="372" height="156" viewBox="0 0 372 156" fill="none" xmlns="http://www.w3.org/2000/svg">
<path d="M56.334 74.1351C57.6626 72.1517 59.4834 70.5402 61.7962 69.3007C64.1582 68.0611 66.8401 67.4413 69.8419 67.4413C73.3358 67.4413 76.4852 68.309 79.2901 70.0444C82.1442 71.7798 84.3833 74.259 86.0072 77.4819C87.6803 80.6553 88.5168 84.3493 88.5168 88.5639C88.5168 92.7785 87.6803 96.5221 86.0072 99.7946C84.3833 103.018 82.1442 105.521 79.2901 107.306C76.4852 109.092 73.3358 109.984 69.8419 109.984C66.7909 109.984 64.109 109.389 61.7962 108.199C59.5326 106.959 57.7118 105.373 56.334 103.439V109.315H46V54.2768H56.334V74.1351ZM77.9614 88.5639C77.9614 86.0847 77.4447 83.9526 76.4114 82.1676C75.4272 80.333 74.0985 78.9447 72.4254 78.0026C70.8015 77.0605 69.03 76.5894 67.1108 76.5894C65.2408 76.5894 63.4693 77.0853 61.7962 78.077C60.1723 79.019 58.8436 80.4074 57.8102 82.242C56.826 84.0766 56.334 86.2335 56.334 88.7126C56.334 91.1918 56.826 93.3487 57.8102 95.1833C58.8436 97.0179 60.1723 98.431 61.7962 99.4227C63.4693 100.365 65.2408 100.836 67.1108 100.836C69.03 100.836 70.8015 100.34 72.4254 99.3483C74.0985 98.3567 75.4272 96.9435 76.4114 95.1089C77.4447 93.2743 77.9614 91.0927 77.9614 88.5639Z" fill="#E2D3C9"/>
<path d="M93.369 88.5639C93.369 84.3989 94.1809 80.7049 95.8048 77.4819C97.4779 74.259 99.717 71.7798 102.522 70.0444C105.376 68.309 108.55 67.4413 112.044 67.4413C115.095 67.4413 117.752 68.0611 120.016 69.3007C122.329 70.5402 124.174 72.1021 125.552 73.9863V68.1106H135.96V109.315H125.552V103.29C124.223 105.224 122.378 106.835 120.016 108.125C117.703 109.364 115.021 109.984 111.97 109.984C108.525 109.984 105.376 109.092 102.522 107.306C99.717 105.521 97.4779 103.018 95.8048 99.7946C94.1809 96.5221 93.369 92.7785 93.369 88.5639ZM125.552 88.7126C125.552 86.1839 125.06 84.027 124.076 82.242C123.091 80.4074 121.763 79.019 120.09 78.077C118.416 77.0853 116.62 76.5894 114.701 76.5894C112.782 76.5894 111.01 77.0605 109.387 78.0026C107.763 78.9447 106.434 80.333 105.401 82.1676C104.416 83.9526 103.924 86.0847 103.924 88.5639C103.924 91.0431 104.416 93.2247 105.401 95.1089C106.434 96.9435 107.763 98.3567 109.387 99.3483C111.06 100.34 112.831 100.836 114.701 100.836C116.62 100.836 118.416 100.365 120.09 99.4227C121.763 98.431 123.091 97.0427 124.076 95.2577C125.06 93.4231 125.552 91.2414 125.552 88.7126Z" fill="#E2D3C9"/>
<path d="M156.386 54.2768V109.315H146.053V54.2768H156.386Z" fill="#E2D3C9"/>
<path d="M204.611 87.8201C204.611 89.3076 204.512 90.6464 204.315 91.8364H174.421C174.667 94.8114 175.7 97.1419 177.521 98.8277C179.342 100.514 181.581 101.356 184.238 101.356C188.076 101.356 190.807 99.6954 192.431 96.3733H203.577C202.396 100.34 200.133 103.613 196.786 106.191C193.44 108.72 189.331 109.984 184.459 109.984C180.523 109.984 176.98 109.116 173.83 107.381C170.73 105.596 168.294 103.092 166.523 99.869C164.8 96.646 163.939 92.9272 163.939 88.7126C163.939 84.4484 164.8 80.7049 166.523 77.4819C168.245 74.259 170.656 71.7798 173.756 70.0444C176.857 68.309 180.424 67.4413 184.459 67.4413C188.347 67.4413 191.816 68.2842 194.867 69.97C197.967 71.6559 200.354 74.0607 202.027 77.1845C203.749 80.2586 204.611 83.8039 204.611 87.8201ZM193.908 84.8451C193.858 82.1676 192.899 80.0355 191.029 78.4488C189.159 76.8126 186.871 75.9944 184.164 75.9944C181.605 75.9944 179.44 76.7878 177.669 78.3745C175.946 79.9115 174.888 82.0684 174.495 84.8451H193.908Z" fill="#E2D3C9"/>
<path d="M230.902 76.6638H223.742V109.315H213.261V76.6638H208.61V68.1106H213.261V66.0281C213.261 60.9706 214.688 57.2518 217.542 54.8718C220.396 52.4918 224.702 51.3762 230.459 51.5249V60.3012C227.95 60.2516 226.203 60.6731 225.219 61.5656C224.234 62.4581 223.742 64.0696 223.742 66.4V68.1106H230.902V76.6638Z" fill="#D92323"/>
<path d="M242.84 63.2019C241.019 63.2019 239.494 62.6317 238.263 61.4912C236.321 56.5188 238.483 56.4437 239.512 52.7893C240.145 50.5441 238.027 46.984 239.847 46.984C241.668 46.984 247.343 52.7893 247.343 52.7893C247.343 52.7893 249.188 55.3677 249.188 57.1031C249.188 58.8385 248.573 60.3012 247.343 61.4912C246.162 62.6317 244.661 63.2019 242.84 63.2019ZM247.933 68.1106V109.315H237.599V68.1106H247.933Z" fill="#D92323"/>
<path d="M268.477 74.5069C269.806 72.3253 271.528 70.6146 273.644 69.375C275.809 68.1354 278.27 67.5156 281.025 67.5156V78.4488H278.294C275.046 78.4488 272.586 79.2174 270.913 80.7545C269.289 82.2916 268.477 84.9691 268.477 88.787V109.315H258.143V68.1106H268.477V74.5069Z" fill="#D92323"/>
<path d="M326 87.8201C326 89.3076 325.902 90.6464 325.705 91.8364H295.81C296.056 94.8114 297.09 97.1419 298.91 98.8277C300.731 100.514 302.97 101.356 305.627 101.356C309.466 101.356 312.197 99.6954 313.821 96.3733H324.967C323.786 100.34 321.522 103.613 318.176 106.191C314.829 108.72 310.72 109.984 305.849 109.984C301.912 109.984 298.369 109.116 295.22 107.381C292.119 105.596 289.684 103.092 287.912 99.869C286.19 96.646 285.328 92.9272 285.328 88.7126C285.328 84.4484 286.19 80.7049 287.912 77.4819C289.634 74.259 292.046 71.7798 295.146 70.0444C298.246 68.309 301.814 67.4413 305.849 67.4413C309.736 67.4413 313.206 68.2842 316.257 69.97C319.357 71.6559 321.743 74.0607 323.416 77.1845C325.139 80.2586 326 83.8039 326 87.8201ZM315.297 84.8451C315.248 82.1676 314.288 80.0355 312.418 78.4488C310.548 76.8126 308.26 75.9944 305.554 75.9944C302.995 75.9944 300.829 76.7878 299.058 78.3745C297.336 79.9115 296.278 82.0684 295.884 84.8451H315.297Z" fill="#D92323"/>
</svg>
